<svg width="92" height="102" viewBox="0 0 92 102" xmlns="http://www.w3.org/2000/svg"><g fill="none" fill-rule="evenodd"><path d="M87 46c0 23.748-19.475 43-43.5 43C19.476 89 0 69.748 0 46S19.476 3 43.5 3C67.525 3 87 22.252 87 46" fill="#00D090"/><path d="M32.233 73C20.549 68.24 13 57.248 13 44.998 13 32.75 20.55 21.76 32.233 17L36 25.62c-8.086 3.295-13.31 10.901-13.31 19.378 0 8.48 5.224 16.087 13.31 19.381L32.233 73zm39.319 29c-6.888-3.905-11.175-11.175-11.189-18.972L60.36 80.3l2.41-1.361a39.169 39.169 0 0 0 13.11-12.07 37.688 37.688 0 0 0 6.523-21.236 37.69 37.69 0 0 0-6.52-21.232A39.18 39.18 0 0 0 55 8.984L57.877 0a49.051 49.051 0 0 1 9.753 4.21c6.474 3.67 12.092 8.85 16.243 14.977A46.934 46.934 0 0 1 92 45.633a46.946 46.946 0 0 1-8.13 26.452c-3.585 5.294-8.266 9.88-13.652 13.397.725 3.476 2.94 6.553 6.135 8.364L71.552 102z" fill="#011627"/></g></svg>